# Blender v2.91.0 OBJ File: ''
# www.blender.org
mtllib sign.mtl
o Cylinder
v 0.000000 -18.224998 -1.000000
v 0.000000 18.224998 -1.000000
v 0.309017 -18.224998 -0.951057
v 0.309017 18.224998 -0.951057
v 0.587785 -18.224998 -0.809017
v 0.587785 18.224998 -0.809017
v 0.809017 -18.224998 -0.587785
v 0.809017 18.224998 -0.587785
v 0.951057 -18.224998 -0.309017
v 0.951057 18.224998 -0.309017
v 1.000000 -18.224998 0.000000
v 1.000000 18.224998 0.000000
v 0.951056 -18.224998 0.309017
v 0.951056 18.224998 0.309017
v 0.809017 -18.224998 0.587785
v 0.809017 18.224998 0.587785
v 0.587785 -18.224998 0.809017
v 0.587785 18.224998 0.809017
v 0.309017 -18.224998 0.951057
v 0.309017 18.224998 0.951057
v -0.000000 -18.224998 1.000000
v -0.000000 18.224998 1.000000
v -0.309017 -18.224998 0.951056
v -0.309017 18.224998 0.951056
v -0.587786 -18.224998 0.809017
v -0.587786 18.224998 0.809017
v -0.809017 -18.224998 0.587785
v -0.809017 18.224998 0.587785
v -0.951057 -18.224998 0.309016
v -0.951057 18.224998 0.309016
v -1.000000 -18.224998 -0.000001
v -1.000000 18.224998 -0.000001
v -0.951056 -18.224998 -0.309018
v -0.951056 18.224998 -0.309018
v -0.809016 -18.224998 -0.587786
v -0.809016 18.224998 -0.587786
v -0.587784 -18.224998 -0.809018
v -0.587784 18.224998 -0.809018
v -0.309016 -18.224998 -0.951057
v -0.309016 18.224998 -0.951057
vt 1.000000 0.500000
vt 1.000000 1.000000
vt 0.950000 1.000000
vt 0.950000 0.500000
vt 0.900000 1.000000
vt 0.900000 0.500000
vt 0.850000 1.000000
vt 0.850000 0.500000
vt 0.800000 1.000000
vt 0.800000 0.500000
vt 0.750000 1.000000
vt 0.750000 0.500000
vt 0.700000 1.000000
vt 0.700000 0.500000
vt 0.650000 1.000000
vt 0.650000 0.500000
vt 0.600000 1.000000
vt 0.600000 0.500000
vt 0.550000 1.000000
vt 0.550000 0.500000
vt 0.500000 1.000000
vt 0.500000 0.500000
vt 0.450000 1.000000
vt 0.450000 0.500000
vt 0.400000 1.000000
vt 0.400000 0.500000
vt 0.350000 1.000000
vt 0.350000 0.500000
vt 0.300000 1.000000
vt 0.300000 0.500000
vt 0.250000 1.000000
vt 0.250000 0.500000
vt 0.200000 1.000000
vt 0.200000 0.500000
vt 0.150000 1.000000
vt 0.150000 0.500000
vt 0.100000 1.000000
vt 0.100000 0.500000
vt 0.324164 0.478254
vt 0.250000 0.490000
vt 0.175836 0.478254
vt 0.108932 0.444164
vt 0.055836 0.391069
vt 0.021747 0.324164
vt 0.010000 0.250000
vt 0.021746 0.175836
vt 0.055836 0.108932
vt 0.108931 0.055836
vt 0.175836 0.021746
vt 0.250000 0.010000
vt 0.324164 0.021746
vt 0.391068 0.055836
vt 0.444164 0.108932
vt 0.478254 0.175836
vt 0.490000 0.250000
vt 0.478254 0.324164
vt 0.444164 0.391068
vt 0.391068 0.444164
vt 0.050000 1.000000
vt 0.050000 0.500000
vt -0.000000 1.000000
vt -0.000000 0.500000
vt 0.750000 0.490000
vt 0.824164 0.478254
vt 0.891068 0.444164
vt 0.944164 0.391068
vt 0.978254 0.324164
vt 0.990000 0.250000
vt 0.978254 0.175836
vt 0.944164 0.108932
vt 0.891068 0.055836
vt 0.824164 0.021746
vt 0.750000 0.010000
vt 0.675836 0.021746
vt 0.608931 0.055836
vt 0.555836 0.108932
vt 0.521746 0.175836
vt 0.510000 0.250000
vt 0.521747 0.324164
vt 0.555836 0.391069
vt 0.608932 0.444164
vt 0.675836 0.478254
vn 0.0000 -0.6735 -0.7391
vn 0.0000 0.6735 -0.7391
vn 0.2284 0.6735 -0.7030
vn 0.2284 -0.6735 -0.7030
vn 0.4345 0.6735 -0.5980
vn 0.4345 -0.6735 -0.5980
vn 0.5980 0.6735 -0.4345
vn 0.5980 -0.6735 -0.4345
vn 0.7030 0.6735 -0.2284
vn 0.7030 -0.6735 -0.2284
vn 0.7391 0.6735 0.0000
vn 0.7391 -0.6735 0.0000
vn 0.7030 0.6735 0.2284
vn 0.7030 -0.6735 0.2284
vn 0.5980 0.6735 0.4345
vn 0.5980 -0.6735 0.4345
vn 0.4345 0.6735 0.5980
vn 0.4345 -0.6735 0.5980
vn 0.2284 0.6735 0.7030
vn 0.2284 -0.6735 0.7030
vn 0.0000 0.6735 0.7391
vn 0.0000 -0.6735 0.7391
vn -0.2284 0.6735 0.7030
vn -0.2284 -0.6735 0.7030
vn -0.4345 0.6735 0.5980
vn -0.4345 -0.6735 0.5980
vn -0.5980 0.6735 0.4345
vn -0.5980 -0.6735 0.4345
vn -0.7030 0.6735 0.2284
vn -0.7030 -0.6735 0.2284
vn -0.7391 0.6735 0.0000
vn -0.7391 -0.6735 0.0000
vn -0.7030 0.6735 -0.2284
vn -0.7030 -0.6735 -0.2284
vn -0.5980 0.6735 -0.4345
vn -0.5980 -0.6735 -0.4345
vn -0.4345 0.6735 -0.5980
vn -0.4345 -0.6735 -0.5980
vn -0.2284 0.6735 -0.7030
vn -0.2284 -0.6735 -0.7030
usemtl stick
s 1
f 1/1/1 2/2/2 4/3/3 3/4/4
f 3/4/4 4/3/3 6/5/5 5/6/6
f 5/6/6 6/5/5 8/7/7 7/8/8
f 7/8/8 8/7/7 10/9/9 9/10/10
f 9/10/10 10/9/9 12/11/11 11/12/12
f 11/12/12 12/11/11 14/13/13 13/14/14
f 13/14/14 14/13/13 16/15/15 15/16/16
f 15/16/16 16/15/15 18/17/17 17/18/18
f 17/18/18 18/17/17 20/19/19 19/20/20
f 19/20/20 20/19/19 22/21/21 21/22/22
f 21/22/22 22/21/21 24/23/23 23/24/24
f 23/24/24 24/23/23 26/25/25 25/26/26
f 25/26/26 26/25/25 28/27/27 27/28/28
f 27/28/28 28/27/27 30/29/29 29/30/30
f 29/30/30 30/29/29 32/31/31 31/32/32
f 31/32/32 32/31/31 34/33/33 33/34/34
f 33/34/34 34/33/33 36/35/35 35/36/36
f 35/36/36 36/35/35 38/37/37 37/38/38
f 4/39/3 2/40/2 40/41/39 38/42/37 36/43/35 34/44/33 32/45/31 30/46/29 28/47/27 26/48/25 24/49/23 22/50/21 20/51/19 18/52/17 16/53/15 14/54/13 12/55/11 10/56/9 8/57/7 6/58/5
f 37/38/38 38/37/37 40/59/39 39/60/40
f 39/60/40 40/59/39 2/61/2 1/62/1
f 1/63/1 3/64/4 5/65/6 7/66/8 9/67/10 11/68/12 13/69/14 15/70/16 17/71/18 19/72/20 21/73/22 23/74/24 25/75/26 27/76/28 29/77/30 31/78/32 33/79/34 35/80/36 37/81/38 39/82/40
o Cube_Cube.001
v 0.395600 4.471599 12.561800
v 0.395600 19.968399 12.561800
v 0.395600 4.471599 -12.561800
v 0.395600 19.968399 -12.561800
v 1.804400 4.471599 12.561800
v 1.804400 19.968399 12.561800
v 1.804400 4.471599 -12.561800
v 1.804400 19.968399 -12.561800
vt 0.375000 0.000000
vt 0.625000 0.000000
vt 0.625000 0.250000
vt 0.375000 0.250000
vt 0.625000 0.500000
vt 0.375000 0.500000
vt 0.625000 0.750000
vt 0.375000 0.750000
vt 0.625000 1.000000
vt 0.375000 1.000000
vt 0.125000 0.500000
vt 0.125000 0.750000
vt 0.875000 0.500000
vt 0.875000 0.750000
vn -1.0000 0.0000 0.0000
vn 0.0000 0.0000 -1.0000
vn 1.0000 0.0000 0.0000
vn 0.0000 0.0000 1.0000
vn 0.0000 -1.0000 0.0000
vn 0.0000 1.0000 0.0000
usemtl panel
s off
f 41/83/41 42/84/41 44/85/41 43/86/41
f 43/86/42 44/85/42 48/87/42 47/88/42
f 47/88/43 48/87/43 46/89/43 45/90/43
f 45/90/44 46/89/44 42/91/44 41/92/44
f 43/93/45 47/88/45 45/90/45 41/94/45
f 48/87/46 44/95/46 42/96/46 46/89/46
